<?xml version="1.0" standalone="no"?>
<!DOCTYPE svg PUBLIC "-//W3C//DTD SVG 20010904//EN"
 "http://www.w3.org/TR/2001/REC-SVG-20010904/DTD/svg10.dtd">
<svg version="1.0" xmlns="http://www.w3.org/2000/svg"
 width="238.000000pt" height="62.000000pt" viewBox="0 0 238.000000 62.000000"
 preserveAspectRatio="xMidYMid meet">

<g transform="translate(0.000000,62.000000) scale(0.100000,-0.100000)"
fill="#000000" stroke="none">
<path d="M1906 595 c-38 -36 -34 -70 12 -94 52 -28 100 52 55 91 -32 27 -40
28 -67 3z"/>
<path d="M380 380 l0 -230 50 0 50 0 0 230 0 230 -50 0 -50 0 0 -230z"/>
<path d="M1170 380 l0 -230 50 0 49 0 3 73 3 72 49 -72 49 -73 58 0 c33 0 59
2 59 5 0 3 -25 39 -55 79 -30 40 -55 77 -55 82 0 5 25 37 56 72 l56 62 -61 0
-60 0 -48 -62 -48 -63 -3 143 -3 142 -49 0 -50 0 0 -230z"/>
<path d="M1605 567 c-48 -27 -65 -57 -65 -116 0 -37 5 -49 35 -77 20 -18 51
-36 69 -39 47 -9 96 -41 96 -63 0 -26 -31 -52 -61 -52 -13 0 -42 9 -63 21
l-39 21 -30 -30 c-35 -35 -30 -47 27 -73 93 -42 217 -14 251 57 40 85 5 146
-110 192 -57 22 -71 32 -73 52 -7 46 51 64 110 34 29 -15 31 -15 59 12 16 15
29 31 29 35 0 4 -20 16 -45 28 -61 29 -137 28 -190 -2z"/>
<path d="M0 365 l0 -215 113 0 c139 0 189 18 214 77 21 52 2 111 -44 134 l-32
16 23 13 c45 23 60 95 30 139 -28 39 -73 51 -194 51 l-110 0 0 -215z m201 125
c22 -12 25 -52 5 -69 -8 -7 -34 -13 -58 -14 l-43 -2 -3 48 -3 47 41 0 c23 0
50 -5 61 -10z m21 -177 c42 -38 3 -83 -72 -83 l-50 0 0 50 0 50 52 0 c34 0 58
-6 70 -17z"/>
<path d="M605 448 c-33 -12 -55 -27 -55 -37 1 -3 9 -16 19 -28 18 -21 21 -22
48 -8 33 18 57 19 84 5 44 -24 13 -50 -62 -50 -104 0 -151 -113 -70 -167 42
-28 86 -29 129 -3 26 16 32 17 32 5 0 -11 12 -15 45 -15 l45 0 0 80 c0 170
-29 222 -128 227 -31 1 -70 -3 -87 -9z m119 -190 c-11 -39 -26 -49 -63 -46
-26 2 -37 8 -40 22 -5 27 25 46 72 46 35 0 38 -2 31 -22z"/>
<path d="M940 438 c-106 -55 -109 -213 -5 -273 49 -29 120 -33 165 -10 36 19
36 22 6 60 -20 24 -27 28 -37 18 -20 -19 -63 -15 -87 7 -16 15 -22 33 -22 60
0 65 48 98 103 69 18 -10 24 -8 44 17 30 38 29 42 -12 60 -49 20 -104 17 -155
-8z"/>
<path d="M2172 441 c-39 -25 -42 -25 -42 -6 0 11 -12 15 -45 15 l-45 0 0 -225
0 -225 50 0 50 0 0 90 0 90 33 -20 c121 -74 251 72 189 213 -24 54 -57 78
-115 84 -31 3 -51 -1 -75 -16z m73 -67 c23 -9 48 -62 41 -90 -9 -34 -45 -64
-77 -64 -31 0 -79 49 -79 80 0 10 12 32 26 49 25 30 54 38 89 25z"/>
<path d="M1890 300 l0 -150 45 0 45 0 0 150 0 150 -45 0 -45 0 0 -150z"/>
</g>
</svg>
